<svg width="41" height="42" viewBox="0 0 41 42" fill="none" xmlns="http://www.w3.org/2000/svg">
<path d="M13.7135 31.943C13.7135 32.107 13.5234 32.2383 13.2837 32.2383C13.0109 32.2629 12.8208 32.1316 12.8208 31.943C12.8208 31.7789 13.0109 31.6477 13.2506 31.6477C13.4986 31.623 13.7135 31.7543 13.7135 31.943ZM11.1427 31.5738C11.0849 31.7379 11.2502 31.9266 11.4982 31.9758C11.7131 32.0578 11.9611 31.9758 12.0107 31.8117C12.0603 31.6477 11.9032 31.459 11.6552 31.3852C11.4403 31.3277 11.2006 31.4098 11.1427 31.5738ZM14.7964 31.4344C14.5567 31.4918 14.3913 31.6477 14.4161 31.8363C14.4409 32.0004 14.6558 32.107 14.9038 32.0496C15.1435 31.9922 15.3089 31.8363 15.2841 31.6723C15.2593 31.5164 15.0361 31.4098 14.7964 31.4344ZM20.2355 0C8.77036 0 0 8.63789 0 20.0156C0 29.1129 5.76976 36.8977 14.0111 39.6375C15.0692 39.8262 15.4411 39.1781 15.4411 38.6449C15.4411 38.1363 15.4163 35.3309 15.4163 33.6082C15.4163 33.6082 9.63004 34.8387 8.41492 31.1637C8.41492 31.1637 7.47258 28.7766 6.11694 28.1613C6.11694 28.1613 4.22399 26.8734 6.24919 26.898C6.24919 26.898 8.30746 27.0621 9.43992 29.0145C11.2502 32.1809 14.2839 31.2703 15.4659 30.7289C15.656 29.4164 16.1933 28.5059 16.7885 27.9645C12.1677 27.4559 7.50565 26.7914 7.50565 18.9C7.50565 16.6441 8.13387 15.5121 9.45645 14.0684C9.24153 13.5352 8.53891 11.3367 9.67137 8.49844C11.399 7.96523 15.375 10.7133 15.375 10.7133C17.0282 10.2539 18.8054 10.016 20.5661 10.016C22.3268 10.016 24.104 10.2539 25.7573 10.7133C25.7573 10.7133 29.7333 7.95703 31.4609 8.49844C32.5933 11.3449 31.8907 13.5352 31.6758 14.0684C32.9984 15.5203 33.8085 16.6523 33.8085 18.9C33.8085 26.816 28.9397 27.4477 24.319 27.9645C25.0794 28.6125 25.7242 29.843 25.7242 31.7707C25.7242 34.5352 25.6994 37.9559 25.6994 38.6285C25.6994 39.1617 26.0796 39.8098 27.1294 39.6211C35.3956 36.8977 41 29.1129 41 20.0156C41 8.63789 31.7006 0 20.2355 0ZM8.03468 28.2926C7.92722 28.3746 7.95202 28.5633 8.09254 28.7191C8.2248 28.8504 8.41492 28.9078 8.52238 28.8012C8.62984 28.7191 8.60504 28.5305 8.46452 28.3746C8.33226 28.2434 8.14214 28.1859 8.03468 28.2926ZM7.14194 27.6281C7.08407 27.7348 7.16673 27.866 7.33206 27.948C7.46431 28.0301 7.62964 28.0055 7.6875 27.8906C7.74536 27.784 7.6627 27.6527 7.49738 27.5707C7.33206 27.5215 7.1998 27.5461 7.14194 27.6281ZM9.82016 30.5484C9.6879 30.6551 9.7375 30.9012 9.92762 31.057C10.1177 31.2457 10.3575 31.2703 10.4649 31.1391C10.5724 31.0324 10.5228 30.7863 10.3575 30.6305C10.1756 30.4418 9.92762 30.4172 9.82016 30.5484ZM8.87782 29.3426C8.74557 29.4246 8.74557 29.6379 8.87782 29.8266C9.01008 30.0152 9.23327 30.0973 9.34073 30.0152C9.47298 29.9086 9.47298 29.6953 9.34073 29.5066C9.225 29.318 9.01008 29.2359 8.87782 29.3426Z" fill="white"/>
</svg>
