<svg width="36" height="41" viewBox="0 0 36 41" fill="none" xmlns="http://www.w3.org/2000/svg">
<rect width="30" height="30" transform="translate(2 5)" fill="white"/>
<path d="M33.4286 2.5625H2.56339C1.14911 2.5625 0 3.72363 0 5.14902V35.851C0 37.2764 1.14911 38.4375 2.56339 38.4375H33.4286C34.8429 38.4375 36 37.2764 36 35.851V5.14902C36 3.72363 34.8429 2.5625 33.4286 2.5625ZM10.8804 33.3125H5.54464V16.1918H10.8884V33.3125H10.8804ZM8.2125 13.8535C6.50089 13.8535 5.11875 12.4682 5.11875 10.7705C5.11875 9.07285 6.50089 7.6875 8.2125 7.6875C9.91607 7.6875 11.3062 9.07285 11.3062 10.7705C11.3062 12.4762 9.92411 13.8535 8.2125 13.8535ZM30.8812 33.3125H25.5455V24.9844C25.5455 22.9984 25.5054 20.4439 22.7732 20.4439C19.9929 20.4439 19.567 22.6061 19.567 24.8402V33.3125H14.2313V16.1918H19.35V18.5301H19.4223C20.1375 17.1848 21.8813 15.7674 24.4768 15.7674C29.8768 15.7674 30.8812 19.3148 30.8812 23.9273V33.3125Z" fill="#000077"/>
</svg>
