<svg width="20" height="14" viewBox="0 0 38 28" fill="none" xmlns="http://www.w3.org/2000/svg">
	<path d="M34.4375 0C36.4043 0 38 1.56698 38 3.5C38 4.60104 37.473 5.63646 36.575 6.3L20.425 18.2C19.5789 18.8198 18.4211 18.8198 17.575 18.2L1.425 6.3C0.527918 5.63646 0 4.60104 0 3.5C0 1.56698 1.59496 0 3.5625 0H34.4375ZM16.15 20.0667C17.8422 21.3135 20.1578 21.3135 21.85 20.0667L38 8.16667V23.3333C38 25.9073 35.8699 28 33.25 28H4.75C2.12637 28 0 25.9073 0 23.3333V8.16667L16.15 20.0667Z" fill="white" />
</svg>