<svg width="42" height="40" viewBox="0 0 42 40" fill="none" xmlns="http://www.w3.org/2000/svg">
<path d="M37.6827 11.8528C37.7094 12.2081 37.7094 12.5635 37.7094 12.9188C37.7094 23.7563 29.0483 36.2437 13.2183 36.2437C8.34135 36.2437 3.81093 34.8984 0 32.5635C0.692918 32.6396 1.35909 32.665 2.07867 32.665C6.10272 32.665 9.80708 31.3706 12.7652 29.1625C8.98095 29.0863 5.80962 26.7259 4.71696 23.4772C5.25 23.5533 5.78296 23.6041 6.34266 23.6041C7.11547 23.6041 7.88837 23.5025 8.60787 23.3249C4.66372 22.5634 1.70551 19.264 1.70551 15.2792V15.1777C2.85141 15.7869 4.184 16.1676 5.59634 16.2183C3.2778 14.7462 1.75883 12.2335 1.75883 9.39086C1.75883 7.86805 2.18515 6.47211 2.93139 5.25383C7.16871 10.2284 13.538 13.4771 20.6801 13.8325C20.5469 13.2234 20.4669 12.5889 20.4669 11.9544C20.4669 7.43657 24.3045 3.75641 29.0747 3.75641C31.5532 3.75641 33.7917 4.74625 35.3641 6.34524C37.3095 5.98992 39.1749 5.30461 40.8273 4.36555C40.1876 6.26914 38.8285 7.86813 37.043 8.88328C38.7753 8.70571 40.4542 8.24875 41.9998 7.6143C40.8274 9.2386 39.3616 10.6852 37.6827 11.8528Z" fill="#00ACEE"/>
</svg>
